#define desk_toggled_width 7
#define desk_toggled_height 7
static unsigned char desk_toggled_bits[] = {
   0x63, 0x41, 0x1c, 0x1c, 0x1c, 0x41, 0x63 };
