#define max_width 7
#define max_height 7
static unsigned char max_bits[] = {
   0x70, 0x40, 0x40, 0x00, 0x01, 0x01, 0x07 };
