#define max_toggled_width 9
#define max_toggled_height 9
static unsigned char max_toggled_bits[] = {
   0x40, 0x00, 0x40, 0x00, 0xc0, 0x01, 0x00, 0x00, 0x00, 0x00, 0x00, 0x00,
   0x07, 0x00, 0x04, 0x00, 0x04, 0x00 };
