#define shade_toggled_width 7
#define shade_toggled_height 7
static unsigned char shade_toggled_bits[] = {
   0x00, 0x7f, 0x00, 0x00, 0x1c, 0x08, 0x00 };
